<svg xmlns="http://www.w3.org/2000/svg" width="3840" height="2160" viewBox="0 0 3840 2160"><defs><linearGradient id="bg" x2="0" y2="1"><stop stop-color="#020711"/><stop offset=".55" stop-color="#071b27"/><stop offset="1" stop-color="#0b100c"/></linearGradient><linearGradient id="g"><stop stop-color="#f4d986"/><stop offset=".5" stop-color="#9f7228"/><stop offset="1" stop-color="#4b3514"/></linearGradient></defs><rect width="3840" height="2160" fill="url(#bg)"/><g fill="none" stroke="url(#g)" opacity=".34"><path stroke-width="10" d="M500 1580L950 1090l420 490 420-490 420 490 420-490 450 490"/><path stroke-width="5" d="M500 1620L950 1130l420 490 420-490 420 490 420-490 450 490"/><path stroke-width="3" d="M520 1660h2800"/></g><g transform="translate(1920 690)" fill="none" stroke="url(#g)"><circle r="280" stroke-width="7"/><circle r="215" stroke-width="3"/><path stroke-width="8" d="M0-215v430M-215 0h430M-152-152l304 304M152-152L-152 152"/><path stroke-width="4" d="M0-330c55 55 95 55 150 0M0 330c55-55 95-55 150 0M-330 0c55-55 55-95 0-150M330 0c-55-55-55-95 0-150"/></g><g fill="#e7c96e" opacity=".6"><circle cx="700" cy="410" r="4"/><circle cx="1120" cy="620" r="3"/><circle cx="2820" cy="430" r="4"/><circle cx="3160" cy="760" r="3"/></g></svg>